<svg width="512" height="170" viewBox="0 0 512 170" fill="none" xmlns="http://www.w3.org/2000/svg">
<rect width="512" height="170" fill="black"/>
<path d="M300.568 114.569C293.358 124.113 280.337 128.826 266.754 121.42C265.89 124.956 266.471 128.453 266.344 131.895C266.246 134.557 266.372 137.227 266.309 139.892C266.184 145.188 262.802 148.63 257.507 148.93C252.46 149.217 248.694 146.221 247.854 141.21C247.708 140.34 247.661 139.443 247.661 138.558C247.665 117.611 247.645 96.6644 247.715 75.7176C247.739 68.6305 250.577 65.0262 256.211 64.8909C259.791 64.8049 262.822 66.3939 265.438 69.2309C271.427 64.5181 278.253 63.6499 285.3 65.1482C295.492 67.3152 303.844 76.9488 305.899 87.788C307.72 97.3967 305.929 106.166 300.568 114.569ZM267.743 86.9151C265.493 92.2094 265.568 97.5361 267.969 102.698C270.975 109.162 278.421 110.811 283.831 106.448C286.933 103.947 287.916 100.395 288.538 96.7861C289.665 90.2426 285.671 82.9074 280.123 80.8308C276.064 79.3117 271.527 81.4032 267.743 86.9151Z" fill="white"/>
<path d="M443.883 124.425C440.837 123.747 438.794 122.122 437.128 119.943C434.357 116.317 431.586 112.692 428.801 109.077C427.979 108.011 427.252 106.821 425.186 105.962C425.186 109.67 425.445 112.936 425.13 116.146C424.53 122.249 419.603 125.657 413.581 124.439C409.118 123.536 406.72 120.301 406.715 114.907C406.695 93.3455 406.718 71.7845 406.726 50.2234C406.726 49.7163 406.725 49.2071 406.767 48.7024C407.141 44.182 409.715 41.5763 414.276 41.0877C419.457 40.5327 423.339 42.6364 424.724 46.7084C425.307 48.4226 425.382 50.1776 425.372 51.961C425.329 59.5707 425.287 67.1804 425.299 74.79C425.301 76.3864 425.002 78.0366 425.789 79.8303C429.548 76.591 432.521 72.8356 435.607 69.2064C438.652 65.6268 442.339 64.0089 447.038 64.6741C449.706 65.052 451.919 66.0668 453.133 68.5953C454.397 71.229 453.584 73.5768 451.783 75.6003C447.654 80.2399 443.568 84.9286 439.223 89.3609C437.267 91.3557 437.29 92.7953 438.968 94.8326C443.239 100.018 447.439 105.265 451.534 110.59C453.591 113.264 456.183 116.042 454.244 119.807C452.166 123.841 448.343 124.633 443.883 124.425Z" fill="white"/>
<path d="M219.961 66.6307C216.417 67.0284 213.567 68.0494 212.819 71.6306C212.05 75.3095 214.599 77.2713 217.275 78.8288C222.304 81.7556 227.861 83.6756 232.543 87.3152C239.439 92.676 243.017 99.635 241.622 108.183C240.091 117.571 234.009 123.348 224.715 125.669C216.226 127.789 208.064 126.524 200.246 123.056C194.413 120.469 192.021 116.03 193.364 111.468C194.394 107.966 196.993 106.196 200.567 106.98C204.025 107.739 207.411 108.836 210.811 109.846C213.191 110.554 215.524 110.58 217.905 109.837C220.136 109.141 221.914 107.873 222.213 105.511C222.505 103.204 221.325 101.23 219.321 100.112C216.338 98.4457 213.216 97.025 210.137 95.5346C205.063 93.0794 200.251 90.299 197.121 85.3637C190.036 74.1946 194.245 59.0686 206.34 53.3226C215.718 48.8676 225.457 48.9783 235.194 52.3597C237.278 53.0836 239.082 54.2689 240.268 56.1815C241.927 58.8552 242.324 61.6426 240.538 64.4131C238.715 67.2409 236.04 68.5793 232.728 67.9434C228.609 67.1526 224.51 66.397 219.961 66.6307Z" fill="white"/>
<path d="M483.68 137.347C479.6 143.161 474.646 147.298 467.768 148.708C462.271 149.834 457.913 147.655 456.361 143.011C454.968 138.844 456.503 134.569 460.698 133.419C470.594 130.708 472.078 122.037 474.976 114.324C475.584 112.703 474.563 111.103 473.911 109.595C469.882 100.278 465.838 90.9682 461.794 81.6586C461.086 80.0292 460.299 78.4325 459.635 76.786C457.16 70.6511 457.956 67.0046 462.552 65.3501C467.133 63.7011 474.019 64.0583 476.307 70.3504C478.899 77.4813 481.859 84.4786 484.874 92.0751C487.243 88.6951 487.896 85.1934 489.253 82.031C490.953 78.0714 492.247 73.9375 493.955 69.9818C496.343 64.4498 504.458 62.6665 509.061 66.5725C511.665 68.7819 511.803 71.5527 510.588 74.5284C507.758 81.457 504.939 88.39 502.074 95.3036C497.071 107.374 492.573 119.655 486.982 131.478C486.064 133.42 484.884 135.238 483.68 137.347Z" fill="white"/>
<path d="M319.994 123.07C310.93 118.639 306.466 110.676 308.211 102.465C310.249 92.87 318.317 86.4151 328.868 86.0204C331.783 85.9112 334.707 85.9615 337.626 86.0075C340.694 86.0558 340.871 84.509 339.507 82.4236C338.039 80.18 335.814 79.0688 333.111 78.8284C329.1 78.4718 325.327 79.4369 321.54 80.5726C316.777 82.0009 313.563 80.7496 311.934 77.0425C310.306 73.3378 311.74 69.0079 316.028 67.2708C327.043 62.8081 338.271 62.044 348.999 68.011C355.167 71.4413 358.343 77.145 358.349 84.3719C358.357 93.8926 358.296 103.414 358.373 112.934C358.408 117.254 358.4 121.568 353.773 123.701C349.391 125.722 345.361 124.604 341.828 121.317C334.918 125.613 327.705 125.755 319.994 123.07ZM324.911 103.694C324.524 109.762 332.145 112.951 336.788 110.116C339.761 108.301 341.236 105.353 340.639 102.082C340.004 98.5992 336.848 97.3055 333.684 97.3701C329.779 97.4499 326.692 99.3904 324.911 103.694Z" fill="white"/>
<path d="M365.851 115.984C365.841 101.971 365.873 88.2786 365.816 74.5862C365.801 71.0724 365.62 67.5031 369.452 65.7411C373.679 63.7972 377.858 64.2935 381.765 66.7753C382.701 67.3701 383.48 68.2117 384.456 69.0465C386.88 67.2853 389.18 65.5465 392.159 64.9969C396.764 64.1477 401.414 66.1645 402.688 69.7853C404.14 73.9129 401.579 78.9907 396.918 80.8318C393.72 82.0951 390.558 83.345 387.857 85.5504C385.279 87.6556 383.721 90.0615 383.836 93.6591C384.063 100.758 383.924 107.868 383.911 114.974C383.901 120.746 381.091 124.055 375.857 124.52C370.607 124.986 366.951 121.982 365.851 115.984Z" fill="white"/>
<rect x="10" y="10" width="150" height="150" rx="20" fill="white"/>
<path d="M89.2374 95.039C93.6369 95.2478 97.9263 95.6079 102.18 96.3173C103.477 96.5335 104.766 96.7925 106.064 96.9979C107.35 97.2013 108.532 96.697 109.733 96.372C111.388 95.924 112.995 95.3272 114.556 94.6205C115.136 94.3576 115.972 94.1561 115.973 93.4123C115.973 92.6986 115.178 92.416 114.608 92.1143C113.175 91.3552 111.609 90.9328 110.076 90.4292C109.483 90.2341 108.874 90.084 108.278 89.8953C106.787 89.4229 105.999 88.2372 106.231 86.8354C106.485 85.3046 107.555 84.3289 109.186 84.5918C113.765 85.3299 118.216 86.518 121.972 89.4379C123.465 90.5986 124.497 92.1277 124.931 93.9957C125.09 94.682 125.473 94.9428 126.14 95.0444C132.044 95.9439 136.204 100.338 136.984 106.353C137.906 113.471 133.191 120.406 125.369 121.509C124.018 121.7 122.676 121.676 121.327 121.669C120.851 121.667 120.517 121.792 120.275 122.226C117.393 127.384 113.388 131.52 108.639 134.977C108.591 135.013 108.565 135.081 108.432 135.275C109.584 135.384 110.659 135.511 111.738 135.583C115.021 135.803 118.276 136.251 121.513 136.825C122.124 136.933 122.729 137.124 123.263 137.475C124.446 138.253 124.428 139.553 123.189 140.244C121.859 140.986 120.348 141.058 118.888 141.241C111.954 142.106 104.982 142.408 98.0049 142.68C91.4157 142.936 84.8263 143.084 78.235 142.95C72.7012 142.837 67.1662 142.674 61.6383 142.4C56.6125 142.151 51.5861 141.821 46.6051 141.046C45.7305 140.909 44.8489 140.749 44.0501 140.329C43.3844 139.978 42.9966 139.455 43.0442 138.662C43.0916 137.873 43.6165 137.498 44.2704 137.281C46.1217 136.669 48.0497 136.42 49.9736 136.193C52.7393 135.867 55.5127 135.607 58.3864 135.307C57.834 134.458 57.0034 134.026 56.317 133.469C48.8143 127.381 44.0652 119.62 42.0644 110.174C40.9794 105.051 41.0006 99.9188 41.9373 94.7761C42.4893 91.7447 44.3509 89.7343 46.9177 88.2496C49.5417 86.7316 52.4143 85.8877 55.3273 85.1618C56.2804 84.9243 57.2072 84.5526 58.2135 84.5548C59.6737 84.558 60.7528 85.5019 60.9777 86.9868C61.1896 88.3855 60.5112 89.4646 59.0727 89.9229C57.6302 90.3823 56.1631 90.7651 54.7254 91.2384C53.664 91.5878 52.5882 91.9305 51.6418 92.5526C50.7879 93.1139 50.7656 93.4983 51.6286 93.9716C54.4876 95.5393 57.5872 96.4222 60.7736 96.992C61.7525 97.167 62.7123 96.6989 63.6793 96.5275C67.3403 95.8786 71.0239 95.4611 74.7339 95.2251C78.1197 95.0097 81.505 94.8152 84.8983 94.8598C86.3135 94.8784 87.7276 94.9768 89.2374 95.039ZM110.987 124.495C117.461 117.104 120.161 108.497 119.485 98.5853C118.998 98.7833 118.716 98.8656 118.466 99.0046C116.084 100.328 113.505 101.154 110.902 101.859C103.521 103.858 95.943 104.509 88.3427 104.816C79.9013 105.158 71.4953 104.632 63.1475 103.285C58.2888 102.501 53.5462 101.328 49.0929 99.1583C48.5769 98.9069 48.1179 98.5015 47.5042 98.4201C47.444 98.5574 47.3765 98.6422 47.3729 98.7297C47.2179 102.523 47.3023 106.301 48.2582 110.006C50.9722 120.522 57.3914 128.073 67.0118 132.857C74.0522 136.358 81.581 137.178 89.3335 136.004C97.8465 134.714 105.068 130.974 110.987 124.495ZM124.301 115.201C124.682 115.099 125.065 115.004 125.444 114.892C130.025 113.549 132.033 108.355 129.483 104.331C128.558 102.872 127.221 101.915 125.35 101.563C125.288 102.72 125.453 103.76 125.385 104.803C125.17 108.101 124.701 111.343 123.608 114.475C123.421 115.011 123.621 115.22 124.301 115.201Z" fill="black"/>
<path d="M85.5107 30.3719C86.4597 33.4509 88.548 35.221 91.5056 36.0697C92.137 36.2508 92.779 36.4087 93.3887 36.6474C93.9142 36.8532 94.4324 37.153 94.3979 37.8397C94.3657 38.4797 93.9345 38.846 93.378 39.0449C92.4497 39.3765 91.5083 39.6714 90.5718 39.9796C87.6612 40.9374 85.912 42.9472 85.1924 45.8986C85.1072 46.2478 85.0066 46.6031 84.8457 46.9216C84.629 47.3506 84.2774 47.6625 83.7611 47.6617C83.2287 47.6609 82.9222 47.312 82.7362 46.8639C82.5474 46.4091 82.3694 45.9451 82.2421 45.4703C81.4451 42.4966 79.4839 40.6899 76.5995 39.8C75.9084 39.5868 75.2118 39.3915 74.5194 39.1822C73.8153 38.9694 73.183 38.614 73.2193 37.7877C73.2555 36.9602 73.9341 36.6726 74.6378 36.4981C75.6284 36.2525 76.5957 35.9483 77.5402 35.5522C80.5022 34.3103 81.7075 31.7973 82.4155 28.9103C82.5092 28.5284 82.5784 28.1355 82.7197 27.7713C82.895 27.3196 83.1967 26.9918 83.7492 27.0002C84.3234 27.0088 84.7075 27.3139 84.8632 27.8159C85.1153 28.6293 85.2863 29.4679 85.5107 30.3719Z" fill="black"/>
<path d="M50.6303 61.2987C49.5302 59.8523 47.9895 59.2849 46.408 58.7847C45.9698 58.6462 45.5291 58.5107 45.1033 58.3398C44.6329 58.1509 44.3678 57.781 44.3731 57.2683C44.3787 56.7117 44.7768 56.4669 45.2384 56.3235C45.9598 56.0994 46.6928 55.9128 47.4148 55.6908C49.8798 54.933 51.2722 53.1797 51.9448 50.7709C52.0948 50.2335 52.2302 49.6914 52.3501 49.1466C52.4633 48.6316 52.7663 48.3111 53.2846 48.2795C53.8539 48.2448 54.2212 48.584 54.3747 49.1033C54.5602 49.7311 54.6768 50.3789 54.843 51.013C55.5304 53.6362 57.1585 55.3026 59.8299 55.9155C60.3729 56.0401 60.911 56.1986 61.4362 56.3845C61.8613 56.535 62.1663 56.8185 62.1753 57.3259C62.1842 57.8264 61.9145 58.1426 61.4888 58.3075C60.846 58.5563 60.1905 58.7767 59.5301 58.9749C56.962 59.7455 55.3782 61.4045 54.8628 64.0607C54.763 64.5751 54.6006 65.0786 54.4475 65.5811C54.295 66.0815 54.0424 66.4815 53.4338 66.4935C52.7596 66.5067 52.5327 66.0387 52.3757 65.5144C52.1967 64.917 52.0603 64.3069 51.8854 63.7081C51.6339 62.847 51.2413 62.0547 50.6303 61.2987Z" fill="black"/>
<path d="M110.812 60.8566C109.798 59.6698 108.466 59.1959 107.104 58.7749C106.601 58.6197 106.092 58.4747 105.608 58.2724C105.225 58.1123 104.98 57.8125 104.985 57.3511C104.99 56.852 105.256 56.5313 105.686 56.3778C106.243 56.1792 106.818 56.028 107.393 55.8854C110.011 55.2352 111.621 53.5853 112.28 50.985C112.369 50.6341 112.437 50.2769 112.543 49.9316C112.729 49.3297 112.886 48.6766 113.724 48.7073C114.513 48.7361 114.618 49.3746 114.777 49.942C114.893 50.3531 114.962 50.777 115.064 51.1921C115.679 53.7018 117.26 55.2504 119.751 55.892C120.229 56.015 120.706 56.1423 121.175 56.2942C121.631 56.4421 122.047 56.6846 122.085 57.2198C122.125 57.8002 121.725 58.1289 121.248 58.3208C120.515 58.6152 119.763 58.8601 119.018 59.1222C116.894 59.8694 115.537 61.3075 115.03 63.5225C114.92 64.0029 114.778 64.4761 114.648 64.9519C114.498 65.5041 114.231 65.913 113.571 65.9043C112.933 65.8959 112.754 65.4386 112.599 64.9555C112.499 64.6424 112.408 64.3247 112.337 64.0037C112.084 62.8565 111.578 61.8332 110.812 60.8566Z" fill="black"/>
<path d="M66.8361 80.1149C68.226 82.3587 69.5765 84.5422 70.9309 86.7233C71.5093 87.6548 71.5525 88.5689 70.8743 89.4734C69.9041 90.7671 68.1608 90.7736 67.2026 89.3917C66.0593 87.7429 65.0117 86.0269 63.9423 84.3276C61.6981 80.7617 59.4663 77.1879 57.2308 73.6164C57.0738 73.3654 56.9106 73.1158 56.7818 72.8502C56.2072 71.6648 56.4808 70.5069 57.4686 69.8927C58.5816 69.2005 60.0113 69.3918 60.7213 70.4613C62.1227 72.5723 63.4464 74.735 64.8003 76.8775C65.4685 77.9348 66.1324 78.9948 66.8361 80.1149Z" fill="black"/>
<path d="M101.69 77.7188C103.146 75.4403 104.562 73.2205 105.98 71.0024C106.491 70.2024 107.079 69.5335 108.146 69.5112C110.076 69.471 111.2 71.204 110.214 72.8558C108.847 75.1434 107.379 77.3695 105.954 79.6222C104.231 82.3473 102.513 85.0759 100.78 87.7951C100.445 88.3209 100.091 88.8443 99.68 89.3103C98.7936 90.3144 97.6772 90.4687 96.6891 89.7806C95.6892 89.0842 95.3955 87.8461 96.0338 86.7232C96.6676 85.6082 97.3566 84.5239 98.0417 83.439C99.2364 81.5469 100.447 79.6646 101.69 77.7188Z" fill="black"/>
<path d="M86.1223 71.1667C86.122 71.6928 86.1277 72.1211 86.1202 72.5493C86.0979 73.8341 85.3167 74.726 84.1341 74.8241C82.8279 74.9325 81.8977 74.2507 81.6497 72.9557C81.5512 72.4415 81.4976 71.9105 81.4971 71.387C81.4923 66.0834 81.4983 60.7799 81.514 55.4763C81.5161 54.7867 81.5635 54.0944 81.637 53.4084C81.7762 52.108 82.7129 51.2817 83.9475 51.3293C85.1744 51.3766 86.0849 52.2854 86.1114 53.577C86.1452 55.2234 86.1219 56.871 86.1221 58.518C86.1225 62.7017 86.1222 66.8853 86.1223 71.1667Z" fill="black"/>
<path d="M37.2182 82.196C36.7044 79.848 35.3766 78.3801 33.0955 77.7921C32.4895 77.6358 32.0009 77.3027 32 76.5751C31.9991 75.831 32.5397 75.5142 33.123 75.3801C35.4344 74.8483 36.6592 73.3911 37.0186 71.0873C37.1112 70.4938 37.4094 69.9456 38.1651 69.9337C38.9154 69.9219 39.1699 70.4545 39.3642 71.04C39.4989 71.4455 39.6024 71.8613 39.735 72.2675C40.1917 73.6673 41.0621 74.6741 42.4884 75.1531C42.8624 75.2787 43.241 75.4017 43.5962 75.5708C44.5286 76.0146 44.6187 76.8885 43.7952 77.5093C43.5897 77.6642 43.338 77.7803 43.0896 77.8521C41.0796 78.4326 39.7617 79.645 39.3919 81.7773C39.2965 82.3271 38.9778 82.7533 38.3841 82.8691C37.8547 82.9723 37.5027 82.7056 37.2182 82.196Z" fill="black"/>
<path d="M77.6109 77.099C78.5204 80.4071 79.4351 83.6331 80.2956 86.8735C80.8088 88.8062 79.7555 90.1832 77.9598 90.0246C76.8436 89.9259 76.2543 89.1695 75.9587 88.2222C75.3613 86.3074 74.8501 84.3656 74.3133 82.4321C73.909 80.9758 73.4626 79.5278 73.1407 78.053C72.8084 76.5303 73.3585 75.626 74.6963 75.2196C75.9128 74.85 76.8761 75.3763 77.4876 76.7462C77.5277 76.8362 77.5582 76.9306 77.6109 77.099Z" fill="black"/>
<path d="M100.256 57.64C99.3365 58.7759 98.2706 59.1032 97.2892 58.6032C96.2705 58.0842 95.8129 57.0087 96.2041 55.7237C97.2298 52.3547 98.2843 48.9938 99.3784 45.6465C99.7848 44.4033 100.983 43.8101 102.109 44.1547C103.323 44.5265 104.053 45.6041 103.662 46.8407C102.531 50.4164 101.625 54.0632 100.256 57.64Z" fill="black"/>
<path d="M87.0477 88.8818C86.7247 88.2147 86.741 87.6142 86.9172 86.9845C87.8117 83.7875 88.6838 80.5843 89.5778 77.3871C89.746 76.7856 89.9408 76.1729 90.4491 75.7556C91.1798 75.1558 92.0228 75.0789 92.8616 75.4398C93.7882 75.8385 94.1488 76.6327 94.0701 77.6095C93.9664 78.8978 93.4518 80.0922 93.1518 81.3366C92.6515 83.4121 92.0467 85.4624 91.4825 87.5224C91.4044 87.8074 91.3285 88.0962 91.2145 88.3677C90.403 90.2998 88.4288 90.5771 87.0477 88.8818Z" fill="black"/>
<path d="M65.7785 31.9039C66.4991 32.5881 67.3824 32.7926 68.1968 33.138C68.6574 33.3333 69.1071 33.5445 69.1014 34.1711C69.0956 34.8183 68.6942 35.0898 68.1537 35.2709C67.7173 35.4171 67.2917 35.5955 66.8599 35.7556C65.7032 36.1845 64.9162 36.9544 64.5927 38.1701C64.4999 38.5185 64.3813 38.8637 64.2369 39.194C64.0242 39.6805 63.6829 40.0115 63.0983 39.9632C62.5632 39.9191 62.2857 39.5835 62.1329 39.1075C62.1229 39.0762 62.1062 39.0467 62.0987 39.0149C61.6448 37.0979 60.4407 35.94 58.5493 35.4322C57.9425 35.2693 57.3299 35.016 57.3178 34.2188C57.3055 33.4045 57.9489 33.1645 58.5394 33.0013C60.5596 32.443 61.7472 31.1815 62.1101 29.1047C62.2159 28.4998 62.5464 27.9903 63.2928 27.9922C64.0575 27.9941 64.239 28.5219 64.4166 29.1342C64.6992 30.1084 64.935 31.1204 65.7785 31.9039Z" fill="black"/>
<path d="M107.545 31.6769C108.23 32.3988 109.06 32.7042 109.912 32.9782C110.516 33.1724 111.178 33.3882 111.164 34.1703C111.151 34.9272 110.518 35.2268 109.908 35.3825C108.042 35.8587 106.859 36.9588 106.404 38.8612C106.266 39.4404 105.927 39.9924 105.188 39.9548C104.511 39.9203 104.241 39.4096 104.098 38.8431C103.632 36.9951 102.444 35.9034 100.623 35.4489C99.9825 35.2891 99.3813 34.9973 99.3273 34.2742C99.2697 33.5029 99.8952 33.2067 100.524 33.0457C102.563 32.5233 103.731 31.213 104.119 29.1691C104.207 28.7034 104.339 28.2331 104.842 28.0752C105.62 27.8313 106.099 28.1706 106.33 28.9356C106.615 29.8755 106.795 30.864 107.545 31.6769Z" fill="black"/>
<path d="M70.5888 54.8469C71.004 56.6494 70.6718 57.5982 69.507 58.0937C68.1671 58.6638 66.9202 58.1179 66.3923 56.5863C65.7602 54.7524 65.2505 52.8764 64.6872 51.0188C64.2671 49.6335 63.8176 48.2564 63.4335 46.8611C63.0601 45.5046 63.5909 44.4153 64.725 44.0619C65.9691 43.6741 67.2158 44.2522 67.6658 45.545C68.2601 47.2523 68.76 48.9925 69.299 50.7191C69.7206 52.0693 70.14 53.4202 70.5888 54.8469Z" fill="black"/>
<path d="M132.429 75.6683C133.028 76.9474 132.573 77.8649 131.274 78.1438C130.761 78.2541 130.239 78.3318 129.732 78.4644C128.729 78.7265 128.052 79.325 127.836 80.3804C127.696 81.0642 127.43 81.6471 126.609 81.7081C125.759 81.7714 125.514 81.1955 125.281 80.5271C124.783 79.0969 124.327 78.8066 122.812 78.7392C122.223 78.713 121.628 78.6556 121.051 78.5395C120.157 78.3598 119.456 77.4754 119.47 76.6313C119.484 75.7796 120.1 75.1245 121.136 75.0357C124.387 74.7572 127.647 74.9187 130.903 74.9287C131.455 74.9304 132.014 75.1076 132.429 75.6683Z" fill="black"/>
<path d="M50.9743 75.1131C52.0131 75.703 53.0018 76.2283 53.9371 76.836C55.1259 77.6084 55.4318 78.8329 54.7766 79.8981C54.0941 81.0079 52.9846 81.248 51.6982 80.5171C50.7847 79.9981 49.8844 79.4512 49.01 78.869C47.9404 78.157 47.5847 76.9651 48.085 75.9648C48.5518 75.0316 49.6626 74.6845 50.9743 75.1131Z" fill="black"/>
<path d="M92.8482 66.2823C92.6195 64.4621 93.4841 63.3041 95.1619 63.0739C96.4022 62.9036 97.7631 63.8478 97.972 65.0236C98.2572 66.6282 97.4036 68.1184 96.0228 68.4265C94.5311 68.7593 93.2958 67.9492 92.8482 66.2823Z" fill="black"/>
<path d="M72.7339 64.6472C73.8293 65.1295 74.4247 65.8893 74.4417 67.0366C74.4572 68.072 74.0322 68.8956 73.1449 69.433C72.1921 70.01 71.0164 69.8936 70.2048 69.1927C69.331 68.438 69.0203 67.1508 69.4442 66.0406C69.7942 65.1238 70.787 64.4896 71.8825 64.5062C72.143 64.5101 72.4024 64.5814 72.7339 64.6472Z" fill="black"/>
<path d="M83.4933 132.31C80.7253 132.147 78.3042 131.361 76.3463 129.428C74.7497 127.851 73.7345 125.969 73.3704 123.754C73.0958 122.083 73.5746 121.391 75.2632 121.307C77.3991 121.201 79.5425 121.237 81.6827 121.23C85.0428 121.22 88.403 121.205 91.7629 121.231C93.7249 121.246 94.2903 121.999 93.8847 123.92C92.8216 128.954 89.1154 131.973 83.4933 132.31Z" fill="black"/>
<path d="M89.1774 112.917C89.5318 110.394 91.038 108.96 93.4946 108.723C95.3187 108.547 97.2344 109.84 97.8325 111.652C98.6216 114.042 97.3735 116.556 95.0386 117.28C92.6441 118.022 90.0251 116.587 89.3766 114.166C89.2752 113.787 89.242 113.39 89.1774 112.917ZM91.2225 110.828C90.5256 111.173 90.2358 111.717 90.5634 112.444C90.8082 112.988 91.2958 113.205 91.8801 113.001C92.4292 112.808 92.7789 112.41 92.6837 111.799C92.5711 111.077 92.1387 110.697 91.2225 110.828Z" fill="black"/>
<path d="M73.0557 108.739C75.7442 108.754 77.5283 110.252 77.7988 112.637C78.0567 114.912 76.7233 116.768 74.3924 117.379C72.1379 117.97 69.6346 116.462 69.0477 114.159C68.4541 111.83 69.8609 109.485 72.1987 108.911C72.4539 108.848 72.7137 108.803 73.0557 108.739ZM70.1741 111.571C70.1284 112.71 70.8719 113.427 71.706 113.036C72.1813 112.814 72.5287 112.44 72.4997 111.899C72.4693 111.333 72.1064 110.904 71.5794 110.735C70.9447 110.533 70.5426 110.937 70.1741 111.571Z" fill="black"/>
</svg>
