<svg width="512" height="170" viewBox="0 0 512 170" fill="none" xmlns="http://www.w3.org/2000/svg">
<rect width="512" height="170" fill="white"/>
<path d="M300.568 114.569C293.358 124.113 280.337 128.826 266.754 121.42C265.889 124.956 266.471 128.453 266.344 131.895C266.246 134.557 266.372 137.227 266.309 139.892C266.184 145.188 262.802 148.63 257.507 148.93C252.46 149.217 248.694 146.221 247.854 141.21C247.708 140.34 247.661 139.443 247.661 138.558C247.665 117.611 247.645 96.6644 247.715 75.7176C247.739 68.6305 250.577 65.0262 256.211 64.8909C259.791 64.8049 262.822 66.3939 265.438 69.2309C271.427 64.5181 278.253 63.6499 285.3 65.1482C295.492 67.3152 303.844 76.9488 305.899 87.788C307.72 97.3967 305.929 106.166 300.568 114.569ZM267.743 86.9151C265.493 92.2094 265.568 97.5361 267.969 102.698C270.975 109.162 278.421 110.811 283.831 106.448C286.933 103.947 287.916 100.395 288.538 96.7861C289.665 90.2426 285.671 82.9074 280.123 80.8308C276.064 79.3117 271.527 81.4032 267.743 86.9151Z" fill="black"/>
<path d="M443.883 124.425C440.837 123.747 438.794 122.122 437.128 119.943C434.357 116.317 431.586 112.692 428.801 109.077C427.979 108.011 427.252 106.821 425.186 105.962C425.186 109.67 425.445 112.936 425.13 116.146C424.53 122.249 419.603 125.657 413.581 124.439C409.118 123.536 406.72 120.301 406.715 114.907C406.695 93.3455 406.718 71.7845 406.726 50.2234C406.726 49.7163 406.725 49.2071 406.767 48.7024C407.141 44.182 409.715 41.5763 414.276 41.0877C419.457 40.5327 423.339 42.6364 424.724 46.7084C425.307 48.4226 425.382 50.1776 425.372 51.961C425.329 59.5707 425.287 67.1804 425.299 74.79C425.301 76.3864 425.002 78.0366 425.789 79.8303C429.548 76.591 432.521 72.8356 435.607 69.2064C438.652 65.6268 442.339 64.0089 447.038 64.6741C449.706 65.052 451.919 66.0668 453.133 68.5953C454.397 71.229 453.584 73.5768 451.783 75.6003C447.654 80.2399 443.568 84.9286 439.223 89.3609C437.267 91.3557 437.29 92.7953 438.968 94.8326C443.239 100.018 447.439 105.265 451.534 110.59C453.591 113.264 456.183 116.042 454.244 119.807C452.166 123.841 448.343 124.633 443.883 124.425Z" fill="black"/>
<path d="M219.961 66.6307C216.417 67.0284 213.567 68.0494 212.819 71.6306C212.05 75.3095 214.599 77.2713 217.275 78.8288C222.304 81.7556 227.861 83.6756 232.543 87.3152C239.439 92.676 243.017 99.635 241.622 108.183C240.091 117.571 234.009 123.348 224.715 125.669C216.226 127.789 208.064 126.524 200.246 123.056C194.413 120.469 192.021 116.03 193.364 111.468C194.394 107.966 196.993 106.196 200.567 106.98C204.025 107.739 207.411 108.836 210.811 109.846C213.191 110.554 215.524 110.58 217.905 109.837C220.136 109.141 221.914 107.873 222.213 105.511C222.505 103.204 221.325 101.23 219.321 100.112C216.338 98.4457 213.216 97.025 210.137 95.5346C205.063 93.0794 200.251 90.299 197.121 85.3637C190.036 74.1946 194.245 59.0686 206.34 53.3226C215.718 48.8676 225.457 48.9783 235.194 52.3597C237.278 53.0836 239.082 54.2689 240.268 56.1815C241.927 58.8552 242.324 61.6426 240.538 64.4131C238.715 67.2409 236.04 68.5793 232.728 67.9434C228.609 67.1526 224.51 66.397 219.961 66.6307Z" fill="black"/>
<path d="M483.68 137.347C479.6 143.161 474.646 147.298 467.768 148.708C462.271 149.834 457.913 147.655 456.361 143.011C454.968 138.844 456.503 134.569 460.698 133.419C470.594 130.708 472.078 122.037 474.976 114.324C475.584 112.703 474.563 111.103 473.911 109.595C469.882 100.278 465.838 90.9682 461.794 81.6586C461.086 80.0292 460.299 78.4325 459.635 76.786C457.16 70.6511 457.956 67.0046 462.552 65.3501C467.133 63.7011 474.019 64.0583 476.307 70.3504C478.899 77.4813 481.859 84.4786 484.874 92.0751C487.243 88.6951 487.896 85.1934 489.253 82.031C490.953 78.0714 492.247 73.9375 493.955 69.9818C496.343 64.4498 504.458 62.6665 509.061 66.5725C511.665 68.7819 511.803 71.5527 510.588 74.5284C507.758 81.457 504.939 88.39 502.074 95.3036C497.071 107.374 492.573 119.655 486.982 131.478C486.064 133.42 484.884 135.238 483.68 137.347Z" fill="black"/>
<path d="M319.994 123.07C310.93 118.639 306.466 110.676 308.211 102.465C310.249 92.87 318.317 86.4151 328.868 86.0204C331.783 85.9112 334.707 85.9615 337.626 86.0075C340.694 86.0558 340.871 84.509 339.507 82.4236C338.039 80.18 335.814 79.0688 333.111 78.8284C329.1 78.4718 325.327 79.4369 321.54 80.5726C316.777 82.0009 313.563 80.7496 311.934 77.0425C310.306 73.3378 311.74 69.0079 316.028 67.2708C327.043 62.8081 338.271 62.044 348.999 68.011C355.167 71.4413 358.343 77.145 358.349 84.3719C358.357 93.8926 358.296 103.414 358.373 112.934C358.408 117.254 358.4 121.568 353.773 123.701C349.391 125.722 345.361 124.604 341.828 121.317C334.918 125.613 327.705 125.755 319.994 123.07ZM324.911 103.694C324.524 109.762 332.145 112.951 336.788 110.116C339.761 108.301 341.236 105.353 340.639 102.082C340.004 98.5992 336.848 97.3055 333.684 97.3701C329.779 97.4499 326.692 99.3904 324.911 103.694Z" fill="black"/>
<path d="M365.851 115.984C365.842 101.971 365.873 88.2786 365.816 74.5862C365.801 71.0724 365.62 67.5031 369.452 65.7411C373.679 63.7972 377.858 64.2935 381.765 66.7753C382.701 67.3701 383.48 68.2117 384.456 69.0465C386.88 67.2853 389.18 65.5465 392.159 64.9969C396.764 64.1477 401.414 66.1645 402.688 69.7853C404.14 73.9129 401.579 78.9907 396.918 80.8318C393.72 82.0951 390.558 83.345 387.857 85.5504C385.279 87.6556 383.721 90.0615 383.836 93.6591C384.063 100.758 383.924 107.868 383.911 114.974C383.901 120.746 381.092 124.055 375.857 124.52C370.607 124.986 366.951 121.982 365.851 115.984Z" fill="black"/>
<rect x="10" y="10" width="150" height="150" rx="20" fill="black"/>
<path d="M89.0721 93.7102C92.9976 93.8966 96.825 94.2179 100.621 94.8509C101.778 95.0437 102.928 95.2749 104.086 95.4581C105.233 95.6396 106.288 95.1897 107.36 94.8996C108.837 94.4999 110.271 93.9674 111.663 93.3368C112.181 93.1022 112.927 92.9224 112.928 92.2587C112.928 91.622 112.219 91.3698 111.71 91.1005C110.431 90.4233 109.034 90.0463 107.666 89.597C107.137 89.4229 106.594 89.289 106.062 89.1206C104.731 88.6991 104.028 87.6411 104.235 86.3903C104.462 85.0244 105.417 84.1538 106.872 84.3883C110.957 85.047 114.929 86.107 118.281 88.7125C119.613 89.7481 120.534 91.1125 120.921 92.7793C121.063 93.3917 121.404 93.6244 122 93.7151C127.268 94.5176 130.98 98.4387 131.675 103.805C132.499 110.156 128.291 116.345 121.312 117.329C120.107 117.499 118.909 117.478 117.705 117.472C117.281 117.47 116.982 117.582 116.766 117.969C114.195 122.571 110.621 126.262 106.384 129.346C106.341 129.378 106.318 129.439 106.199 129.612C107.227 129.709 108.187 129.822 109.149 129.887C112.079 130.084 114.982 130.483 117.871 130.995C118.416 131.092 118.956 131.262 119.432 131.575C120.488 132.27 120.473 133.429 119.367 134.046C118.18 134.708 116.832 134.773 115.528 134.935C109.342 135.707 103.121 135.977 96.8952 136.219C91.0158 136.448 85.1361 136.58 79.2548 136.46C74.317 136.36 69.3783 136.214 64.4458 135.97C59.9613 135.748 55.4764 135.453 51.0319 134.761C50.2515 134.64 49.4649 134.496 48.7521 134.122C48.1581 133.809 47.8121 133.342 47.8546 132.634C47.8968 131.93 48.3652 131.595 48.9487 131.403C50.6006 130.856 52.3209 130.634 54.0376 130.432C56.5054 130.141 58.98 129.908 61.5441 129.641C61.0512 128.884 60.3102 128.498 59.6977 128.001C53.0032 122.568 48.7655 115.644 46.9803 107.215C46.0122 102.644 46.0311 98.0644 46.8668 93.4756C47.3595 90.7708 49.0205 88.9769 51.3108 87.6521C53.6522 86.2977 56.2153 85.5447 58.8146 84.897C59.6651 84.685 60.492 84.3534 61.3899 84.3553C62.6928 84.3582 63.6557 85.2004 63.8564 86.5254C64.0454 87.7734 63.4401 88.7363 62.1565 89.1452C60.8695 89.5551 59.5603 89.8967 58.2776 90.319C57.3305 90.6308 56.3705 90.9365 55.526 91.4916C54.7642 91.9925 54.7442 92.3355 55.5143 92.7578C58.0653 94.1567 60.831 94.9445 63.6743 95.4529C64.5477 95.609 65.4041 95.1913 66.2669 95.0384C69.5336 94.4594 72.8204 94.0869 76.1308 93.8763C79.1519 93.6841 82.1726 93.5106 85.2003 93.5504C86.4631 93.567 87.7249 93.6547 89.0721 93.7102ZM108.479 119.994C114.255 113.398 116.665 105.718 116.062 96.8745C115.627 97.0512 115.376 97.1246 115.152 97.2487C113.027 98.4292 110.726 99.1667 108.403 99.7956C101.817 101.579 95.0554 102.16 88.2737 102.434C80.7416 102.739 73.241 102.27 65.7925 101.068C61.4571 100.368 57.2254 99.322 53.2517 97.3859C52.7913 97.1615 52.3818 96.7998 51.8341 96.7271C51.7805 96.8496 51.7202 96.9253 51.717 97.0034C51.5787 100.388 51.654 103.759 52.5069 107.065C54.9286 116.449 60.6563 123.186 69.2405 127.455C75.5225 130.578 82.2404 131.31 89.1578 130.262C96.7538 129.112 103.198 125.775 108.479 119.994ZM120.358 111.701C120.699 111.609 121.041 111.524 121.378 111.425C125.466 110.227 127.258 105.592 124.983 102.002C124.157 100.699 122.964 99.8455 121.295 99.5312C121.239 100.564 121.387 101.492 121.326 102.423C121.134 105.365 120.716 108.258 119.741 111.052C119.574 111.531 119.752 111.717 120.358 111.701Z" fill="white"/>
<path d="M85.7468 36.0087C86.5936 38.756 88.457 40.3355 91.096 41.0927C91.6594 41.2544 92.2323 41.3952 92.7762 41.6083C93.2451 41.7919 93.7075 42.0594 93.6767 42.6721C93.648 43.2431 93.2633 43.57 92.7667 43.7475C91.9384 44.0434 91.0984 44.3065 90.2628 44.5815C87.6657 45.4361 86.1049 47.2295 85.4628 49.863C85.3868 50.1746 85.297 50.4916 85.1535 50.7757C84.9601 51.1585 84.6464 51.4368 84.1857 51.4361C83.7106 51.4354 83.4372 51.1241 83.2712 50.7243C83.1027 50.3184 82.9439 49.9044 82.8303 49.4807C82.1191 46.8274 80.3692 45.2153 77.7955 44.4212C77.1788 44.231 76.5572 44.0567 75.9395 43.87C75.3112 43.6801 74.747 43.363 74.7794 42.6257C74.8117 41.8873 75.4172 41.6307 76.0451 41.475C76.929 41.2558 77.7921 40.9844 78.6349 40.631C81.2779 39.5229 82.3532 37.2806 82.985 34.7046C83.0686 34.3637 83.1304 34.0132 83.2565 33.6882C83.4128 33.2851 83.6821 32.9927 84.1751 33.0001C84.6874 33.0078 85.0302 33.28 85.1691 33.728C85.3941 34.4538 85.5466 35.202 85.7468 36.0087Z" fill="white"/>
<path d="M54.6236 63.6042C53.6419 62.3136 52.2672 61.8073 50.856 61.361C50.4651 61.2374 50.0718 61.1166 49.6918 60.964C49.2721 60.7955 49.0356 60.4654 49.0403 60.0079C49.0454 59.5113 49.4005 59.2929 49.8124 59.1649C50.4561 58.965 51.1101 58.7984 51.7544 58.6004C53.9539 57.9242 55.1963 56.3598 55.7965 54.2104C55.9303 53.7309 56.0511 53.2472 56.158 52.7611C56.2591 52.3016 56.5294 52.0156 56.9919 51.9874C57.4999 51.9564 57.8277 52.2591 57.9646 52.7224C58.1301 53.2826 58.2342 53.8607 58.3824 54.4264C58.9958 56.7671 60.4485 58.254 62.8322 58.8009C63.3167 58.912 63.7969 59.0534 64.2654 59.2193C64.6448 59.3536 64.9169 59.6066 64.9249 60.0594C64.9329 60.506 64.6923 60.7881 64.3124 60.9352C63.7388 61.1572 63.1539 61.3539 62.5647 61.5307C60.2732 62.2183 58.86 63.6986 58.4001 66.0687C58.3111 66.5277 58.1662 66.9769 58.0295 67.4253C57.8935 67.8718 57.6681 68.2288 57.125 68.2394C56.5235 68.2513 56.321 67.8336 56.1809 67.3659C56.0212 66.8328 55.8995 66.2884 55.7434 65.7541C55.519 64.9857 55.1687 64.2788 54.6236 63.6042Z" fill="white"/>
<path d="M108.323 63.2097C107.418 62.1508 106.23 61.728 105.014 61.3523C104.565 61.2138 104.112 61.0844 103.68 60.9039C103.338 60.7611 103.119 60.4935 103.123 60.0818C103.128 59.6365 103.365 59.3504 103.749 59.2134C104.246 59.0362 104.759 58.9013 105.272 58.774C107.608 58.1938 109.044 56.7217 109.633 54.4015C109.712 54.0884 109.772 53.7696 109.868 53.4615C110.033 52.9245 110.173 52.3417 110.921 52.3691C111.625 52.3948 111.719 52.9645 111.861 53.4708C111.964 53.8377 112.026 54.2158 112.117 54.5863C112.666 56.8256 114.076 58.2075 116.299 58.78C116.725 58.8897 117.151 59.0033 117.569 59.1388C117.977 59.2707 118.348 59.4871 118.381 59.9647C118.417 60.4826 118.06 60.7759 117.634 60.9471C116.981 61.2098 116.31 61.4283 115.645 61.6622C113.75 62.3289 112.539 63.6121 112.086 65.5885C111.988 66.0171 111.862 66.4394 111.746 66.8639C111.612 67.3567 111.373 67.7215 110.785 67.7138C110.215 67.7063 110.056 67.2982 109.918 66.8672C109.828 66.5878 109.747 66.3043 109.684 66.0179C109.458 64.9942 109.006 64.0812 108.323 63.2097Z" fill="white"/>
<path d="M69.0838 80.3937C70.324 82.3958 71.529 84.3441 72.7375 86.2902C73.2536 87.1214 73.2921 87.937 72.687 88.7441C71.8213 89.8985 70.2658 89.9043 69.4108 88.6713C68.3906 87.2 67.4559 85.6689 66.5017 84.1526C64.4992 80.9708 62.5078 77.7819 60.5131 74.5951C60.373 74.3712 60.2274 74.1485 60.1125 73.9115C59.5997 72.8538 59.8439 71.8206 60.7253 71.2725C61.7184 70.655 62.9941 70.8256 63.6276 71.7799C64.8781 73.6635 66.0592 75.5932 67.2673 77.505C67.8635 78.4484 68.4559 79.3943 69.0838 80.3937Z" fill="white"/>
<path d="M100.184 78.2557C101.483 76.2226 102.746 74.2419 104.011 72.2628C104.467 71.5489 104.992 70.952 105.944 70.9322C107.666 70.8963 108.669 72.4426 107.789 73.9165C106.57 75.9577 105.259 77.944 103.988 79.954C102.45 82.3856 100.917 84.8203 99.3714 87.2466C99.0724 87.7158 98.7569 88.1828 98.3898 88.5986C97.599 89.4946 96.6028 89.6322 95.7212 89.0183C94.8289 88.3969 94.5668 87.2921 95.1364 86.2901C95.7019 85.2953 96.3167 84.3278 96.928 83.3597C97.9941 81.6714 99.074 79.9919 100.184 78.2557Z" fill="white"/>
<path d="M86.2926 72.4093C86.2923 72.8787 86.2974 73.2609 86.2907 73.6429C86.2708 74.7894 85.5738 75.5852 84.5185 75.6728C83.353 75.7695 82.5231 75.1611 82.3017 74.0056C82.2138 73.5468 82.166 73.0729 82.1656 72.6059C82.1613 67.8736 82.1666 63.1413 82.1807 58.409C82.1825 57.7936 82.2249 57.176 82.2904 56.5638C82.4146 55.4035 83.2504 54.6662 84.352 54.7087C85.4468 54.7509 86.2592 55.5618 86.2829 56.7142C86.313 58.1833 86.2923 59.6534 86.2924 61.1231C86.2928 64.8561 86.2925 68.589 86.2926 72.4093Z" fill="white"/>
<path d="M42.6561 82.2506C42.1977 80.1555 41.0129 78.8457 38.9775 78.321C38.4368 78.1816 38.0008 77.8844 38 77.2351C37.9992 76.5712 38.4816 76.2885 39.002 76.1688C41.0645 75.6943 42.1574 74.3941 42.478 72.3385C42.5607 71.8089 42.8268 71.3198 43.501 71.3091C44.1705 71.2986 44.3976 71.7738 44.571 72.2963C44.6911 72.6581 44.7835 73.0291 44.9018 73.3915C45.3094 74.6406 46.086 75.5389 47.3586 75.9663C47.6924 76.0783 48.0302 76.1881 48.3471 76.339C49.1791 76.735 49.2595 77.5148 48.5247 78.0687C48.3413 78.2069 48.1167 78.3105 47.8951 78.3746C46.1016 78.8926 44.9257 79.9743 44.5957 81.877C44.5106 82.3676 44.2262 82.7479 43.6964 82.8512C43.2241 82.9433 42.9099 82.7053 42.6561 82.2506Z" fill="white"/>
<path d="M78.6979 77.7026C79.5095 80.6544 80.3257 83.5329 81.0934 86.4243C81.5514 88.1488 80.6115 89.3775 79.0092 89.2359C78.0133 89.1479 77.4874 88.473 77.2237 87.6277C76.6907 85.9191 76.2345 84.1865 75.7555 82.4612C75.3948 81.1618 74.9965 79.8698 74.7092 78.5538C74.4127 77.1952 74.9036 76.3883 76.0973 76.0257C77.1827 75.6959 78.0423 76.1655 78.5879 77.3878C78.6237 77.4681 78.6509 77.5523 78.6979 77.7026Z" fill="white"/>
<path d="M98.9034 60.3396C98.0834 61.3532 97.1323 61.6452 96.2566 61.199C95.3477 60.7359 94.9393 59.7763 95.2884 58.6297C96.2036 55.6236 97.1445 52.6248 98.1208 49.6379C98.4834 48.5287 99.5522 47.9994 100.557 48.3069C101.641 48.6386 102.292 49.6001 101.943 50.7036C100.934 53.8941 100.125 57.1481 98.9034 60.3396Z" fill="white"/>
<path d="M87.1182 88.2163C86.8301 87.621 86.8446 87.0852 87.0018 86.5233C87.7999 83.6707 88.5781 80.8125 89.3758 77.9597C89.5259 77.423 89.6997 76.8763 90.1533 76.504C90.8053 75.9688 91.5574 75.9001 92.3059 76.2222C93.1327 76.578 93.4544 77.2865 93.3842 78.1582C93.2917 79.3077 92.8325 80.3735 92.5649 81.4838C92.1184 83.3357 91.5788 85.1652 91.0753 87.0033C91.0056 87.2576 90.9379 87.5153 90.8362 87.7575C90.1121 89.4815 88.3505 89.7289 87.1182 88.2163Z" fill="white"/>
<path d="M68.1401 37.3757C68.783 37.9861 69.5712 38.1687 70.2979 38.4768C70.7089 38.6511 71.1101 38.8396 71.1051 39.3987C71.0999 39.9761 70.7417 40.2184 70.2594 40.38C69.87 40.5105 69.4903 40.6696 69.105 40.8125C68.0729 41.1952 67.3707 41.8821 67.082 42.9669C66.9992 43.2778 66.8934 43.5858 66.7645 43.8805C66.5747 44.3146 66.2702 44.6099 65.7486 44.5669C65.2711 44.5275 65.0235 44.2281 64.8872 43.8033C64.8782 43.7754 64.8634 43.7491 64.8566 43.7207C64.4516 42.0102 63.3772 40.977 61.6895 40.5239C61.1481 40.3785 60.6015 40.1526 60.5907 39.4413C60.5797 38.7147 61.1538 38.5005 61.6808 38.3548C63.4833 37.8567 64.543 36.7311 64.8669 34.878C64.9612 34.3383 65.2561 33.8836 65.9222 33.8853C66.6045 33.887 66.7664 34.3579 66.9249 34.9043C67.1771 35.7736 67.3875 36.6766 68.1401 37.3757Z" fill="white"/>
<path d="M105.408 37.1731C106.019 37.8173 106.759 38.0898 107.52 38.3343C108.058 38.5075 108.649 38.7001 108.637 39.3979C108.625 40.0733 108.06 40.3407 107.516 40.4796C105.851 40.9045 104.796 41.8861 104.39 43.5836C104.266 44.1004 103.964 44.5929 103.304 44.5593C102.701 44.5286 102.46 44.0729 102.332 43.5674C101.916 41.9184 100.857 40.9443 99.2313 40.5388C98.6598 40.3962 98.1233 40.1359 98.0752 39.4906C98.0238 38.8024 98.5819 38.5381 99.1427 38.3945C100.962 37.9283 102.004 36.7592 102.351 34.9355C102.43 34.5199 102.547 34.1002 102.996 33.9593C103.69 33.7418 104.117 34.0445 104.324 34.7271C104.578 35.5657 104.739 36.4478 105.408 37.1731Z" fill="white"/>
<path d="M72.4323 57.8474C72.8027 59.4558 72.5063 60.3023 71.4669 60.7445C70.2714 61.2532 69.1588 60.766 68.6877 59.3994C68.1237 57.7631 67.6689 56.0891 67.1663 54.4316C66.7914 53.1956 66.3904 51.9667 66.0477 50.7218C65.7145 49.5114 66.1881 48.5394 67.2 48.224C68.3102 47.8781 69.4226 48.3939 69.8241 49.5474C70.3543 51.0708 70.8004 52.6236 71.2814 54.1642C71.6575 55.369 72.0317 56.5743 72.4323 57.8474Z" fill="white"/>
<path d="M127.611 76.4261C128.146 77.5673 127.74 78.386 126.581 78.6349C126.123 78.7333 125.657 78.8026 125.204 78.921C124.31 79.1548 123.706 79.6889 123.513 80.6306C123.388 81.2407 123.151 81.7608 122.418 81.8153C121.66 81.8717 121.441 81.3579 121.234 80.7615C120.789 79.4853 120.382 79.2263 119.03 79.1662C118.504 79.1428 117.974 79.0916 117.459 78.988C116.661 78.8276 116.036 78.0384 116.048 77.2853C116.061 76.5253 116.61 75.9408 117.535 75.8616C120.436 75.6131 123.345 75.7572 126.25 75.7661C126.742 75.7676 127.241 75.9257 127.611 76.4261Z" fill="white"/>
<path d="M54.9305 75.9306C55.8574 76.457 56.7396 76.9257 57.5741 77.4679C58.6349 78.1571 58.9078 79.2497 58.3233 80.2002C57.7143 81.1904 56.7243 81.4047 55.5764 80.7525C54.7613 80.2894 53.958 79.8014 53.1778 79.282C52.2234 78.6467 51.906 77.5831 52.3524 76.6906C52.7689 75.8579 53.7601 75.5482 54.9305 75.9306Z" fill="white"/>
<path d="M92.294 68.051C92.0899 66.4268 92.8614 65.3937 94.3585 65.1882C95.4652 65.0363 96.6795 65.8788 96.8659 66.9279C97.1203 68.3597 96.3587 69.6893 95.1266 69.9642C93.7956 70.2612 92.6933 69.5383 92.294 68.051Z" fill="white"/>
<path d="M74.3462 66.592C75.3237 67.0224 75.8549 67.7003 75.8702 68.7241C75.8839 69.6479 75.5047 70.3828 74.713 70.8623C73.8629 71.3772 72.8138 71.2733 72.0896 70.6479C71.3099 69.9746 71.0327 68.826 71.4109 67.8353C71.7232 67.0174 72.6091 66.4514 73.5866 66.4662C73.819 66.4697 74.0505 66.5333 74.3462 66.592Z" fill="white"/>
<path d="M83.9467 126.966C81.4769 126.821 79.3165 126.12 77.5696 124.395C76.1449 122.988 75.2391 121.308 74.9142 119.332C74.6692 117.841 75.0965 117.224 76.6032 117.149C78.5089 117.054 80.4215 117.086 82.3312 117.08C85.3293 117.071 88.3276 117.057 91.3256 117.081C93.0763 117.094 93.5808 117.766 93.2188 119.48C92.2703 123.972 88.9632 126.666 83.9467 126.966Z" fill="white"/>
<path d="M89.0186 109.662C89.3348 107.411 90.6788 106.132 92.8707 105.92C94.4984 105.763 96.2078 106.917 96.7414 108.534C97.4455 110.666 96.3318 112.91 94.2485 113.555C92.1119 114.217 89.775 112.937 89.1963 110.777C89.1058 110.439 89.0762 110.085 89.0186 109.662ZM90.8434 107.798C90.2215 108.106 89.9629 108.592 90.2553 109.241C90.4737 109.725 90.9088 109.92 91.4301 109.737C91.9202 109.565 92.2322 109.21 92.1472 108.665C92.0468 108.021 91.661 107.681 90.8434 107.798Z" fill="white"/>
<path d="M74.6334 105.934C77.0323 105.948 78.6242 107.284 78.8656 109.413C79.0957 111.442 77.9059 113.098 75.8262 113.644C73.8145 114.171 71.5808 112.826 71.0571 110.771C70.5275 108.693 71.7827 106.6 73.8687 106.088C74.0965 106.032 74.3282 105.992 74.6334 105.934ZM72.0622 108.462C72.0214 109.478 72.6849 110.117 73.4291 109.769C73.8532 109.571 74.1632 109.237 74.1373 108.754C74.1101 108.249 73.7864 107.866 73.3161 107.716C72.7498 107.535 72.391 107.896 72.0622 108.462Z" fill="white"/>
</svg>
